<?xml version="1.0" standalone="no"?><!DOCTYPE svg PUBLIC "-//W3C//DTD SVG 1.1//EN" "http://www.w3.org/Graphics/SVG/1.1/DTD/svg11.dtd"><svg class="white-logo grette-logo" data-name="grette-logo" viewBox="0 0 100.47 30" version="1.1" xmlns="http://www.w3.org/2000/svg" xmlns:xlink="http://www.w3.org/1999/xlink" style="block-size:35px;cursor:pointer;display:inline-block;height:35px;inline-size:auto;perspective-origin:50% 50%;position:relative;transform-origin:50% 50%;width:auto;"><defs style="block-size:auto;cursor:pointer;height:auto;inline-size:auto;overflow-clip-margin:0px;overflow-x:visible;overflow-y:visible;perspective-origin:50% 50%;transform-origin:0px 0px;width:auto;"><style style="block-size:auto;cursor:pointer;height:auto;inline-size:auto;overflow-clip-margin:0px;overflow-x:visible;overflow-y:visible;perspective-origin:50% 50%;transform-origin:0px 0px;width:auto;">.logo-color{fill:#1d1d1b;}</style></defs><title style="block-size:auto;cursor:pointer;height:auto;inline-size:auto;overflow-clip-margin:0px;overflow-x:visible;overflow-y:visible;perspective-origin:50% 50%;transform-origin:0px 0px;width:auto;">Grette</title><path class="logo-color" d="M26.89,25.83C25,27.09,21.69,30,15.32,30,6,30,0,23.39,0,15S6.06,0,16,0A30.4,30.4,0,0,1,26.06,1.89l.79,6.42-.35.12C22.76,3,19.84.79,15.63.79,8.39.79,5,7,5,15S8,29.21,15.32,29.21c4.29,0,7.24-2.13,7.24-6.26a10.74,10.74,0,0,0-1.81-6.54v-.08h7.72v.08c-1.3,2.44-1.57,3.78-1.57,7Z" style="block-size:auto;cursor:pointer;d:path(&quot;M 26.89 25.83 C 25 27.09 21.69 30 15.32 30 C 6 30 0 23.39 0 15 S 6.06 0 16 0 A 30.4 30.4 0 0 1 26.06 1.89 L 26.85 8.31 L 26.5 8.43 C 22.76 3 19.84 0.79 15.63 0.79 C 8.39 0.79 5 7 5 15 S 8 29.21 15.32 29.21 C 19.61 29.21 22.56 27.08 22.56 22.95 A 10.74 10.74 0 0 0 20.75 16.41 V 16.33 H 28.47 V 16.41 C 27.17 18.85 26.9 20.19 26.9 23.41 Z&quot;);fill:rgb(29, 29, 27);height:auto;inline-size:auto;overflow-clip-margin:0px;overflow-x:visible;overflow-y:visible;perspective-origin:50% 50%;transform-origin:0px 0px;transition-duration:0.15s;transition-property:fill;width:auto;"/><path class="logo-color" d="M30.82,29.41v-.08c.75-2.2.91-4.06.91-7.56V17.13A7,7,0,0,0,30,12v-.08L35.5,9.84v4.8h.16c1.57-1.89,3.7-4.61,6.26-4.61l-.08,4.8h-.16a7.3,7.3,0,0,0-3.5-1.18,3.75,3.75,0,0,0-2.52,1.77v6.3c0,3.43.08,5.43.87,7.6v.08Z" style="block-size:auto;cursor:pointer;d:path(&quot;M 30.82 29.41 V 29.33 C 31.57 27.13 31.73 25.27 31.73 21.77 V 17.13 A 7 7 0 0 0 30 12 V 11.92 L 35.5 9.84 V 14.64 H 35.66 C 37.23 12.75 39.36 10.03 41.92 10.03 L 41.84 14.83 H 41.68 A 7.3 7.3 0 0 0 38.18 13.65 A 3.75 3.75 0 0 0 35.66 15.42 V 21.72 C 35.66 25.15 35.74 27.15 36.53 29.32 V 29.4 Z&quot;);fill:rgb(29, 29, 27);height:auto;inline-size:auto;overflow-clip-margin:0px;overflow-x:visible;overflow-y:visible;perspective-origin:50% 50%;transform-origin:0px 0px;transition-duration:0.15s;transition-property:fill;width:auto;"/><path class="logo-color" d="M59.32,24.17A8,8,0,0,1,51.53,30c-5.24,0-8.86-4.13-8.86-9.65,0-6.3,4.76-10.31,9.09-10.31a7.65,7.65,0,0,1,7.52,7.68H46.64v.75c0,5.55,2.76,8.19,6.89,8.19A6.76,6.76,0,0,0,59.09,24Zm-12.6-7.09,8.54-.2v-.43c0-3.94-1.18-5.71-3.66-5.71C48.61,10.75,47,13.5,46.72,17.09Z" style="block-size:auto;cursor:pointer;d:path(&quot;M 59.32 24.17 A 8 8 0 0 1 51.53 30 C 46.29 30 42.67 25.87 42.67 20.35 C 42.67 14.05 47.43 10.04 51.76 10.04 A 7.65 7.65 0 0 1 59.28 17.72 H 46.64 V 18.47 C 46.64 24.02 49.4 26.66 53.53 26.66 A 6.76 6.76 0 0 0 59.09 24 Z M 46.72 17.08 L 55.26 16.88 V 16.45 C 55.26 12.51 54.08 10.74 51.6 10.74 C 48.61 10.75 47 13.5 46.72 17.09 Z&quot;);fill:rgb(29, 29, 27);height:auto;inline-size:auto;overflow-clip-margin:0px;overflow-x:visible;overflow-y:visible;perspective-origin:50% 50%;transform-origin:0px 0px;transition-duration:0.15s;transition-property:fill;width:auto;"/><path class="logo-color" d="M62.12,25.24V11.34H60V11.1L65.7,6.18h.39v4.45h5.08v.71H66.09V25.12C66.09,27,67,28,68.85,28a5.39,5.39,0,0,0,2.6-.67l.12.16a6,6,0,0,1-5,2.48C64.17,30,62.12,28.94,62.12,25.24Z" style="block-size:auto;cursor:pointer;d:path(&quot;M 62.12 25.24 V 11.34 H 60 V 11.1 L 65.7 6.18 H 66.09 V 10.63 H 71.17 V 11.34 H 66.09 V 25.12 C 66.09 27 67 28 68.85 28 A 5.39 5.39 0 0 0 71.45 27.33 L 71.57 27.49 A 6 6 0 0 1 66.57 29.97 C 64.17 30 62.12 28.94 62.12 25.24 Z&quot;);fill:rgb(29, 29, 27);height:auto;inline-size:auto;overflow-clip-margin:0px;overflow-x:visible;overflow-y:visible;perspective-origin:50% 50%;transform-origin:0px 0px;transition-duration:0.15s;transition-property:fill;width:auto;"/><path class="logo-color" d="M74.44,25.24V11.34H72.32V11.1L78,6.18h.39v4.45H83.5v.71H78.42V25.12c0,1.93.91,2.91,2.76,2.91a5.39,5.39,0,0,0,2.6-.67l.12.16a6,6,0,0,1-5,2.48C76.49,30,74.44,28.94,74.44,25.24Z" style="block-size:auto;cursor:pointer;d:path(&quot;M 74.44 25.24 V 11.34 H 72.32 V 11.1 L 78 6.18 H 78.39 V 10.63 H 83.5 V 11.34 H 78.42 V 25.12 C 78.42 27.05 79.33 28.03 81.18 28.03 A 5.39 5.39 0 0 0 83.78 27.36 L 83.9 27.52 A 6 6 0 0 1 78.9 30 C 76.49 30 74.44 28.94 74.44 25.24 Z&quot;);fill:rgb(29, 29, 27);height:auto;inline-size:auto;overflow-clip-margin:0px;overflow-x:visible;overflow-y:visible;perspective-origin:50% 50%;transform-origin:0px 0px;transition-duration:0.15s;transition-property:fill;width:auto;"/><path class="logo-color" d="M100.47,24.17A8,8,0,0,1,92.67,30c-5.24,0-8.86-4.13-8.86-9.65,0-6.3,4.76-10.31,9.09-10.31a7.65,7.65,0,0,1,7.52,7.68H87.79v.75c0,5.55,2.76,8.19,6.89,8.19A6.76,6.76,0,0,0,100.23,24Zm-12.6-7.09,8.54-.2v-.43c0-3.94-1.18-5.71-3.66-5.71C89.76,10.75,88.18,13.5,87.87,17.09Z" style="block-size:auto;cursor:pointer;d:path(&quot;M 100.47 24.17 A 8 8 0 0 1 92.67 30 C 87.43 30 83.81 25.87 83.81 20.35 C 83.81 14.05 88.57 10.04 92.9 10.04 A 7.65 7.65 0 0 1 100.42 17.72 H 87.79 V 18.47 C 87.79 24.02 90.55 26.66 94.68 26.66 A 6.76 6.76 0 0 0 100.23 24 Z M 87.87 17.08 L 96.41 16.88 V 16.45 C 96.41 12.51 95.23 10.74 92.75 10.74 C 89.76 10.75 88.18 13.5 87.87 17.09 Z&quot;);fill:rgb(29, 29, 27);height:auto;inline-size:auto;overflow-clip-margin:0px;overflow-x:visible;overflow-y:visible;perspective-origin:50% 50%;transform-origin:0px 0px;transition-duration:0.15s;transition-property:fill;width:auto;"/></svg>